# xmcd
#
# Track frame offsets:
#	150
#	19563
#	33606
#	48410
#	64961
#	75504
#	96479
#	112144
#	124670
#	143161
#	159207
#	177719
#	195867
#	221223
#	235372
#	249033
#	265078
#	281668
#
# Disc length: 3996 seconds
#
# Revision: 0
# Processed by: cddbd v1.5.2PL0 Copyright (c) Steve Scherf et al.
# Submitted via: dBpowerAMP V4.0
#
DISCID=010f9a12
DTITLE=Various Artist - Hott Country 69
DYEAR=1900
DGENRE=
TTITLE0=David Ball - Riding With Private Malone
TTITLE1=Reba McEntire - I'm a Survivor
TTITLE2=Brooks and Dunn - Long Goodbye
TTITLE3=Chad Brock - Tell Me How
TTITLE4=Amanda Stott - To Keep From Missing You
TTITLE5=Carolyn Dawn Johnson - I Don't Want to Go
TTITLE6=Jameson Clark - Don't Play Any Love Songs
TTITLE7=Ennis Sisters - It's Not About You
TTITLE8=George Strait - Run 
TTITLE9=Clint Black w/ Lisa Hartman Black - Easy For Me To Say
TTITLE10=Jamie O'Neal - Shiver
TTITLE11=Rascal Flatts - I'm Movin' On
TTITLE12=Earl Scruggs, Don Henley and Johnny Cash - Passin' Thru
TTITLE13=Shirley Myers - I Give Up
TTITLE14=The Derailers - More Of Your Love
TTITLE15=Tammy Cochran - I Cry
TTITLE16=Sara Evans - Saints and Angles
TTITLE17=K.T. Oslin - Drivin', Cryin', Missin' You
EXTD=Hott Country 69
EXTT0=
EXTT1=
EXTT2=
EXTT3=
EXTT4=
EXTT5=
EXTT6=
EXTT7=
EXTT8=
EXTT9=
EXTT10=
EXTT11=
EXTT12=
EXTT13=
EXTT14=
EXTT15=
EXTT16=
EXTT17=
PLAYORDER=
